<svg width="96" height="37" viewBox="0 0 96 37" fill="none" xmlns="http://www.w3.org/2000/svg">
<path d="M12.6 36.35C10.3 36.35 8.26667 35.95 6.5 35.15C4.76667 34.35 3.4 33.2333 2.4 31.8C1.4 30.3667 0.866667 28.7667 0.8 27H4.5C4.66667 28.7 5.41667 30.2 6.75 31.5C8.08333 32.7667 10.0333 33.4 12.6 33.4C14.9667 33.4 16.8333 32.8 18.2 31.6C19.6 30.3667 20.3 28.8167 20.3 26.95C20.3 25.45 19.9167 24.25 19.15 23.35C18.3833 22.4167 17.4333 21.7333 16.3 21.3C15.1667 20.8333 13.6 20.3333 11.6 19.8C9.26667 19.1667 7.41667 18.55 6.05 17.95C4.68333 17.35 3.51667 16.4167 2.55 15.15C1.58333 13.8833 1.1 12.1667 1.1 10C1.1 8.2 1.56667 6.6 2.5 5.2C3.43333 3.76666 4.75 2.65 6.45 1.85C8.15 1.05 10.1 0.649999 12.3 0.649999C15.5333 0.649999 18.1333 1.45 20.1 3.05C22.1 4.61666 23.25 6.65 23.55 9.15H19.75C19.5167 7.71667 18.7333 6.45 17.4 5.35C16.0667 4.21667 14.2667 3.65 12 3.65C9.9 3.65 8.15 4.21667 6.75 5.35C5.35 6.45 4.65 7.96666 4.65 9.9C4.65 11.3667 5.03333 12.55 5.8 13.45C6.56667 14.35 7.51667 15.0333 8.65 15.5C9.81667 15.9667 11.3833 16.4667 13.35 17C15.6167 17.6333 17.45 18.2667 18.85 18.9C20.25 19.5 21.4333 20.4333 22.4 21.7C23.3667 22.9667 23.85 24.6667 23.85 26.8C23.85 28.4333 23.4167 29.9833 22.55 31.45C21.6833 32.9167 20.4 34.1 18.7 35C17 35.9 14.9667 36.35 12.6 36.35ZM28.4633 18.55C28.4633 15.15 29.2466 12.1 30.8133 9.4C32.4133 6.7 34.5633 4.6 37.2633 3.1C39.9966 1.56666 42.9799 0.799997 46.2133 0.799997C49.9133 0.799997 53.1966 1.71666 56.0633 3.55C58.9633 5.35 61.0633 7.91667 62.3633 11.25H55.5133C54.6133 9.41667 53.3633 8.05 51.7633 7.15C50.1633 6.25 48.3133 5.8 46.2133 5.8C43.9133 5.8 41.8633 6.31667 40.0633 7.35C38.2633 8.38333 36.8466 9.86666 35.8133 11.8C34.8133 13.7333 34.3133 15.9833 34.3133 18.55C34.3133 21.1167 34.8133 23.3667 35.8133 25.3C36.8466 27.2333 38.2633 28.7333 40.0633 29.8C41.8633 30.8333 43.9133 31.35 46.2133 31.35C48.3133 31.35 50.1633 30.9 51.7633 30C53.3633 29.1 54.6133 27.7333 55.5133 25.9H62.3633C61.0633 29.2333 58.9633 31.8 56.0633 33.6C53.1966 35.4 49.9133 36.3 46.2133 36.3C42.9466 36.3 39.9633 35.55 37.2633 34.05C34.5633 32.5167 32.4133 30.4 30.8133 27.7C29.2466 25 28.4633 21.95 28.4633 18.55ZM95.1352 12.2C95.1352 14.2333 94.6685 16.1 93.7352 17.8C92.8018 19.4667 91.3685 20.8167 89.4352 21.85C87.5018 22.8833 85.1018 23.4 82.2352 23.4H76.9352V36H68.3852V0.899999H82.2352C85.0352 0.899999 87.4018 1.38333 89.3352 2.35C91.2685 3.31666 92.7185 4.65 93.6852 6.35C94.6518 8.05 95.1352 10 95.1352 12.2ZM81.5852 16.6C83.2185 16.6 84.4352 16.2167 85.2352 15.45C86.0352 14.6833 86.4352 13.6 86.4352 12.2C86.4352 10.8 86.0352 9.71667 85.2352 8.95C84.4352 8.18333 83.2185 7.8 81.5852 7.8H76.9352V16.6H81.5852Z" fill="white"/>
</svg>
